<svg width="512" height="512" viewBox="0 0 96 96" xmlns="http://www.w3.org/2000/svg">
  <defs>
    <linearGradient id="sunsetGradientPolaroidTight" x1="0" y1="0" x2="0" y2="1">
      <stop offset="0%" stop-color="#FFD873"/>
      <stop offset="40%" stop-color="#FF7E88"/>
      <stop offset="75%" stop-color="#D45BFF"/>
      <stop offset="100%" stop-color="#3B2A88"/>
    </linearGradient>

    <linearGradient id="cipherGradientPolaroidTight" x1="0" y1="0" x2="1" y2="0">
      <stop offset="0%" stop-color="#D2C8FF" stop-opacity="1"/>
      <stop offset="100%" stop-color="#A796FF" stop-opacity="1"/>
    </linearGradient>

    <filter id="cardShadowPolaroidTight" x="-20%" y="-20%" width="140%" height="140%">
      <feDropShadow dx="0" dy="3" stdDeviation="3.5"
                    flood-color="#000000" flood-opacity="0.35"/>
    </filter>

    <linearGradient id="lockBodyGradientPolaroidTight" x1="0" y1="0" x2="0" y2="1">
      <stop offset="0%" stop-color="#FFF4C7"/>
      <stop offset="40%" stop-color="#F7D978"/>
      <stop offset="100%" stop-color="#D49A27"/>
    </linearGradient>

    <filter id="lockShadowPolaroidTight" x="-15%" y="-15%" width="130%" height="130%">
      <feDropShadow dx="0" dy="1" stdDeviation="0.9"
                    flood-color="#000000" flood-opacity="0.4"/>
    </filter>

    <filter id="contrailBlur" x="-10%" y="-10%" width="120%" height="120%">
      <feGaussianBlur stdDeviation="0.4" />
    </filter>
  </defs>

  <!-- Inset and scaled: margin + size tweak -->
  <g transform="translate(5 5) scale(0.9)" filter="url(#cardShadowPolaroidTight)">
    <g transform="rotate(-6 38 44)">
      <!-- Polaroid frame -->
      <rect x="0" y="0" width="76" height="88"
            rx="1" ry="1"
            fill="#FCFCFF"
            stroke="#E0E0F4"
            stroke-width="1"/>

      <!-- Photo area (left edge at x=6) -->
      <rect x="6" y="6" width="64" height="48"
            rx="0.5" ry="0.5"
            fill="url(#sunsetGradientPolaroidTight)"
            stroke="#3C3C46"
            stroke-width="1"
            stroke-opacity="0.7"/>

      <!-- FAR BACKGROUND BUILDINGS -->
      <g fill="#59407E" opacity="0.55">
        <rect x="18" y="35" width="4" height="7"/>
        <rect x="30" y="32" width="5" height="10"/>
        <rect x="32.2" y="30.2" width="0.6" height="2.2"/>
        <rect x="44" y="34" width="4" height="8"/>
        <rect x="49" y="36" width="3" height="6"/>
      </g>

      <!-- Hills / skyline -->
      <path d="M6 44 Q22 36 36 39 T70 42 L70 54 L6 54 Z"
            fill="#351C6A" opacity="1"/>

      <!-- Sun -->
      <circle cx="54" cy="18" r="6.5" fill="#FFEBA9" opacity="0.96"/>

      <!-- Contrails -->
      <g filter="url(#contrailBlur)">
        <path d="M9 11 L41 7"
              stroke="#FFFDFE"
              stroke-width="0.7"
              stroke-linecap="round"
              opacity="0.45"/>
        <path d="M18 8 L20 20"
              transform="rotate(-26 19 14)"
              stroke="#FFFDFE"
              stroke-width="0.5"
              stroke-linecap="round"
              opacity="0.3"/>
      </g>

      <!-- Main flock of birds -->
      <g stroke="#2F2348"
         stroke-width="0.7"
         fill="none"
         stroke-linecap="round"
         opacity="0.9">
        <path d="M26 20 q 2 -1.3 4 0" />
        <path d="M31 18 q 1.8 -1.1 3.6 0" />
        <path d="M36 16 q 1.5 -0.9 3 0" />
      </g>

      <!-- Distant birds -->
      <g stroke="#2F2348"
         stroke-width="0.5"
         fill="none"
         stroke-linecap="round"
         opacity="0.7">
        <path d="M50.2 32.4 q 1.4 -0.8 2.8 0" />
        <path d="M53.6 31.5 q 1.2 -0.7 2.4 0" />
      </g>

      <!-- Bottom caption area -->
      <rect x="1" y="54" width="74" height="32"
            fill="#F5F3FF" opacity="0.9"/>

      <!-- DARKER "WRITING": three lines aligned to photo left (x = 6) -->
      <g transform="translate(6 62)">
        <rect x="0"  y="0"   width="36" height="3.4" rx="1.7"
              fill="url(#cipherGradientPolaroidTight)"/>
        <rect x="0"  y="5.5" width="28" height="3.2" rx="1.6"
              fill="url(#cipherGradientPolaroidTight)" opacity="0.9"/>
        <rect x="0"  y="11"  width="20" height="3.0" rx="1.5"
              fill="url(#cipherGradientPolaroidTight)" opacity="0.8"/>
      </g>

      <!-- Big gold lock hanging over corner -->
      <g transform="translate(41.32 47.37) scale(1.86)" filter="url(#lockShadowPolaroidTight)">
        <rect x="0" y="8" width="24" height="18"
              rx="3" ry="3"
              fill="url(#lockBodyGradientPolaroidTight)"
              stroke="#8A6115"
              stroke-width="0.8"/>

        <rect x="2.2" y="10" width="19.6" height="9"
              rx="2" ry="2"
              fill="#FFFFFF"
              opacity="0.14"/>

        <circle cx="3.4" cy="11" r="0.7" fill="#C28A24" opacity="0.9"/>
        <circle cx="20.6" cy="11" r="0.7" fill="#C28A24" opacity="0.9"/>

        <circle cx="3.4" cy="19.5" r="0.6" fill="#A66D1D" opacity="0.85"/>
        <circle cx="20.6" cy="19.5" r="0.6" fill="#A66D1D" opacity="0.85"/>

        <rect x="7.2" y="10.2" width="3.6" height="14"
              fill="#FFFFFF" opacity="0.10"/>

        <rect x="2.2" y="18.8" width="19.6" height="1.6"
              rx="0.8" fill="#A46D16" opacity="0.45"/>

        <path d="M6 9.5
                 v-4
                 a5 5 0 0 1 12 0
                 v4"
              fill="none"
              stroke="#C28A24"
              stroke-width="2.4"
              stroke-linecap="round"/>

        <rect x="2.2" y="8.4" width="19.6" height="2.4"
              rx="1.2" fill="#FFFFFF" opacity="0.22"/>

        <circle cx="12" cy="16" r="2.2" fill="#4A3210"/>
        <rect x="11.3" y="16.8" width="1.4" height="3.1"
              rx="0.7" fill="#2F1F08"/>
      </g>
    </g>
  </g>
</svg>


