<svg xmlns="http://www.w3.org/2000/svg" viewBox="0 0 200 200">
  <defs>
    <linearGradient id="shieldGrad" x1="0%" y1="0%" x2="100%" y2="100%">
      <stop offset="0%" style="stop-color:#667eea"/>
      <stop offset="100%" style="stop-color:#764ba2"/>
    </linearGradient>
    <linearGradient id="photoGrad" x1="0%" y1="0%" x2="100%" y2="100%">
      <stop offset="0%" style="stop-color:#1a1a2e"/>
      <stop offset="100%" style="stop-color:#16213e"/>
    </linearGradient>
  </defs>
  <circle cx="100" cy="100" r="95" fill="none" stroke="url(#shieldGrad)" stroke-width="2" opacity="0.3"/>
  <path d="M100 20 L170 45 L170 100 C170 145 140 175 100 185 C60 175 30 145 30 100 L30 45 Z" fill="url(#shieldGrad)" opacity="0.95"/>
  <rect x="50" y="55" width="100" height="75" rx="4" ry="4" fill="url(#photoGrad)" stroke="#fff" stroke-width="2" opacity="0.9"/>
  <polygon points="50,130 75,95 95,115 130,75 150,130" fill="#667eea" opacity="0.6"/>
  <circle cx="125" cy="75" r="12" fill="#ffd700" opacity="0.8"/>
  <g transform="translate(100, 105)">
    <rect x="-18" y="-5" width="36" height="28" rx="4" ry="4" fill="#fff" opacity="0.95"/>
    <path d="M-10 -5 L-10 -18 C-10 -30 10 -30 10 -18 L10 -5" fill="none" stroke="#fff" stroke-width="6" stroke-linecap="round" opacity="0.95"/>
    <circle cx="0" cy="8" r="5" fill="url(#shieldGrad)"/>
    <rect x="-2.5" y="8" width="5" height="10" rx="1" fill="url(#shieldGrad)"/>
  </g>
</svg>
